<?xml version="1.0" encoding="utf-8"?>
<!-- Generator: Adobe Illustrator 26.0.1, SVG Export Plug-In . SVG Version: 6.00 Build 0)  -->
<svg version="1.1" id="Layer_1" xmlns="http://www.w3.org/2000/svg" xmlns:xlink="http://www.w3.org/1999/xlink" x="0px" y="0px"
	 viewBox="0 0 270.43 272.93" style="enable-background:new 0 0 270.43 272.93;" xml:space="preserve">
<style type="text/css">
	.st0{fill:#65A3C4;}
	.st1{fill:#1E3662;}
</style>
<g>
	<circle class="st0" cx="135.91" cy="136.47" r="132"/>
	<g id="b3hjj5.tif">
		<g>
			<path class="st1" d="M83.69,151.1c0-24.38,0.18-48.75-0.14-73.13c-0.07-5.23,1.18-6.46,6.39-6.41
				c31.91,0.28,63.83,0.14,95.75,0.14c3.5,28.38,3.44,56.83-0.04,85.14c-1.3,10.61-8.57,18.83-16.71,25.71
				c-1.79,1.52-3.72,3.88-6.27,2.98c-3.37-1.19-2.42-4.68-2.43-7.28c-0.11-21.22,0.16-42.45-0.18-63.66
				c-0.15-9.47,2.53-17.02,10.56-22.38c2.88-1.92,6.31-3.99,3.65-8.28c-2.73-4.4-6.51-3.11-10.01-1.12
				c-12.27,7.02-19.94,16.92-19.88,31.83c0.09,25.4,0.09,50.79-0.13,76.19c-0.08,8.6-4.41,11.92-11.57,9.99
				c-6.01-1.62-5.49-6.51-5.51-10.93c-0.11-25.4-0.18-50.79-0.1-76.19c0.05-15.06-8.07-24.59-20.45-31.34
				c-3.3-1.8-6.73-2.36-9.2,1.35c-2.79,4.19,0.22,6.36,3.3,8.28c5.9,3.69,10.3,8.51,10.35,15.85c0.17,24,0.15,48.01,0.14,72.01
				c0,2,0.26,4.48-2.01,5.49c-2.28,1.02-3.85-0.92-5.41-2.2C93.48,174.75,86.77,164.06,83.69,151.1z"/>
		</g>
	</g>
</g>
</svg>
