<?xml version="1.0" encoding="utf-8"?>
<!-- Generator: Adobe Illustrator 24.0.1, SVG Export Plug-In . SVG Version: 6.00 Build 0)  -->
<svg version="1.1" id="Insel" xmlns="http://www.w3.org/2000/svg" xmlns:xlink="http://www.w3.org/1999/xlink" x="0px" y="0px"
	 viewBox="0 0 257.96 88.8" style="enable-background:new 0 0 257.96 88.8;" xml:space="preserve">
<style type="text/css">
	.st0{fill-rule:evenodd;clip-rule:evenodd;fill:#009870;}
	.st1{fill-rule:evenodd;clip-rule:evenodd;fill:#677078;}
	.st2{fill:#677078;}
	.st3{fill-rule:evenodd;clip-rule:evenodd;fill:#706F6F;}
	.st4{fill-rule:evenodd;clip-rule:evenodd;}
	.st5{fill-rule:evenodd;clip-rule:evenodd;fill:#CC1417;}
</style>
<g>
	<path class="st0" d="M20.71,27.42h-1.1V15.16c0-2.37-2.76-3.96-3.84-4.29l-0.95,1.51c0.55,0.2,2.54,0.91,2.54,2.72v10.68
		c-2.07-1.46-3.55-3.25-3.55-5.74v-9.88h6.9h6.9v9.88c0,2.49-1.48,4.28-3.55,5.74V15.11c0-1.82,1.98-2.52,2.54-2.72l-0.95-1.51
		c-1.08,0.33-3.84,1.92-3.84,4.29v12.26H20.71L20.71,27.42z"/>
</g>
<path class="st1" d="M32.4,54.51h0.68l0.03-2.45h2.92l-0.02,2.45h0.68l0.05-5.41h-0.68l-0.03,2.4H33.1l0.02-2.4h-0.68L32.4,54.51
	L32.4,54.51L32.4,54.51z M39.68,48.77h0.61l0.53-0.74l0.55,0.74h0.61l-0.8-1.12h-0.72L39.68,48.77L39.68,48.77z M38.68,51.81
	c0-1.25,0.89-2.25,2.15-2.25c1.26,0,2.15,1,2.15,2.25c0,1.25-0.89,2.25-2.15,2.25C39.57,54.06,38.68,53.06,38.68,51.81L38.68,51.81z
	 M37.96,51.81c0,1.77,1.27,2.81,2.87,2.81c1.6,0,2.87-1.16,2.87-2.81c0-1.77-1.27-2.81-2.87-2.81
	C39.23,48.99,37.96,50.15,37.96,51.81L37.96,51.81z M45.65,49.57h0.81c0.88,0,1.2,0.51,1.2,1.09c0,0.78-0.6,1.1-1.17,1.1h-0.86
	L45.65,49.57L45.65,49.57z M44.94,54.51h0.67l0.03-2.24h0.77c0.89,0,1.92-0.41,1.92-1.62c0-1.03-0.69-1.56-1.72-1.56h-1.63
	L44.94,54.51L44.94,54.51z M49.4,54.51h0.67l0.05-5.41h-0.67L49.4,54.51L49.4,54.51z M51.11,49.66h1.71l-0.05,4.85h0.67l0.05-4.85
	h1.71V49.1h-4.1V49.66L51.11,49.66z M54.99,54.5h0.7l0.74-1.79h2.24l0.71,1.79h0.72l-2.17-5.4h-0.64L54.99,54.5L54.99,54.5z
	 M58.44,52.15h-1.77l0.91-2.44h0.02L58.44,52.15L58.44,52.15z M63.99,54.51v-0.56h-2.31l0.05-4.85h-0.67l-0.05,5.41H63.99
	L63.99,54.51z M70.98,49.1l-0.02,3.33c-0.01,1.24-0.67,1.63-1.47,1.63c-0.95,0-1.48-0.45-1.48-1.44c0-0.5,0.01-1.02,0.02-1.52
	l0.02-1.99h-0.67l-0.02,1.88c-0.01,0.55-0.01,1.05-0.01,1.48c0,1.64,0.93,2.16,2.1,2.16c1.06,0,2.17-0.41,2.19-2.15l0.02-3.37H70.98
	L70.98,49.1z M73.14,54.51h0.68l0.03-4.31h0.02l2.9,4.31h0.66l0.05-5.4h-0.68l-0.03,4.28h-0.02l-2.92-4.28h-0.63L73.14,54.51
	L73.14,54.51z M79.02,54.51h0.67l0.05-5.41h-0.67L79.02,54.51L79.02,54.51z M82.83,54.51h0.63l2.31-5.41h-0.7l-1.91,4.62L81.4,49.1
	h-0.75L82.83,54.51L82.83,54.51z M86.66,54.51h2.86v-0.56h-2.17l0.02-1.88h2.06V51.5h-2.06l0.02-1.84h2.12V49.1h-2.78L86.66,54.51
	L86.66,54.51z M90.71,54.51h0.68l0.03-2.31h0.43c0.52,0,0.67,0.31,1.01,0.74l1.15,1.56h0.84l-1.21-1.63
	c-0.23-0.28-0.53-0.77-0.89-0.84v-0.01c0.76-0.1,1.36-0.62,1.36-1.5c0-0.9-0.69-1.42-1.72-1.42h-1.63L90.71,54.51L90.71,54.51z
	 M91.43,49.57h0.81c0.88,0,1.2,0.51,1.2,1.09c0,0.79-0.69,1.02-1.35,1.02h-0.67L91.43,49.57L91.43,49.57z M95.51,54.19
	c0.45,0.28,0.9,0.43,1.48,0.43c1.19,0,1.75-0.75,1.75-1.56c0-1.7-2.43-1.42-2.43-2.61c0-0.65,0.53-0.95,1-0.95
	c0.51,0,0.83,0.19,1.15,0.4l0.26-0.49c-0.43-0.26-0.91-0.42-1.44-0.42c-0.96,0-1.64,0.58-1.64,1.42c0,1.89,2.39,1.33,2.39,2.71
	c0,0.6-0.44,0.98-1.07,0.98c-0.42,0-0.86-0.2-1.15-0.4L95.51,54.19L95.51,54.19z M99.97,54.51h0.67l0.05-5.41h-0.67L99.97,54.51
	L99.97,54.51z M101.68,49.66h1.71l-0.05,4.85h0.67l0.05-4.85h1.71V49.1h-4.09V49.66L101.68,49.66z M105.55,54.5h0.7l0.75-1.79h2.24
	l0.7,1.79h0.72l-2.17-5.4h-0.64L105.55,54.5L105.55,54.5z M109,52.15h-1.77l0.91-2.44h0.02L109,52.15L109,52.15z M111.62,54.51h0.67
	l0.05-5.41h-0.67L111.62,54.51L111.62,54.51z M113.88,54.51h0.68l0.03-2.31h0.43c0.52,0,0.67,0.31,1.01,0.74l1.17,1.56h0.81
	l-1.2-1.63c-0.23-0.28-0.53-0.77-0.89-0.84v-0.01c0.76-0.1,1.36-0.62,1.36-1.5c0-0.9-0.69-1.42-1.72-1.42h-1.63L113.88,54.51
	L113.88,54.51z M114.59,49.57h0.8c0.88,0,1.2,0.51,1.2,1.09c0,0.79-0.69,1.02-1.35,1.02h-0.67L114.59,49.57L114.59,49.57z
	 M118.85,54.51h2.86v-0.56h-2.17l0.02-1.88h2.06V51.5h-2.06l0.02-1.84h2.12V49.1h-2.78L118.85,54.51L118.85,54.51z M125.86,49.62
	h0.83c1.45,0,2.38,0.8,2.38,2.16c0,1.49-0.98,2.22-2.53,2.22h-0.72L125.86,49.62L125.86,49.62z M125.15,54.51h1.49
	c1.75,0,3.1-0.95,3.1-2.78c0-1.32-0.84-2.63-2.92-2.63h-1.62L125.15,54.51L125.15,54.51z M130.96,54.51h2.86v-0.56h-2.17l0.01-1.88
	h2.06V51.5h-2.06l0.01-1.84h2.12V49.1H131L130.96,54.51L130.96,54.51z M137.26,54.51h1.52c1.06,0,1.75-0.54,1.75-1.5
	c0-0.69-0.4-1.2-1.08-1.32v-0.01c0.62-0.17,0.95-0.6,0.95-1.26c0-0.61-0.41-1.31-1.59-1.31h-1.5L137.26,54.51L137.26,54.51z
	 M137.97,51.95h0.63c0.78,0,1.25,0.34,1.25,1c0,0.74-0.44,1.05-1.13,1.05h-0.79L137.97,51.95L137.97,51.95z M137.98,49.57h0.54
	c0.86,0,1.2,0.33,1.2,0.93c0,0.55-0.36,0.93-1.25,0.93h-0.51L137.98,49.57L137.98,49.57z M141.81,54.51h2.86v-0.56h-2.17l0.01-1.88
	h2.06V51.5h-2.06l0.01-1.84h2.12V49.1h-2.78L141.81,54.51L141.81,54.51z M145.87,54.51h0.68l0.03-2.31h0.43
	c0.52,0,0.67,0.31,1.01,0.74l1.12,1.56h0.88l-1.23-1.63c-0.23-0.28-0.53-0.77-0.89-0.84v-0.01c0.76-0.1,1.36-0.62,1.36-1.5
	c0-0.9-0.69-1.42-1.72-1.42h-1.63L145.87,54.51L145.87,54.51z M146.59,49.57h0.81c0.88,0,1.2,0.51,1.2,1.09
	c0,0.79-0.69,1.02-1.35,1.02h-0.67L146.59,49.57L146.59,49.57z M150.84,54.51h0.68l0.03-4.31h0.02l2.91,4.31h0.63l0.06-5.4h-0.68
	l-0.03,4.28h-0.02l-2.93-4.28h-0.63L150.84,54.51L150.84,54.51z M156.69,54.51h2.86v-0.56h-2.17l0.02-1.88h2.06V51.5h-2.06
	l0.02-1.84h2.12V49.1h-2.78L156.69,54.51L156.69,54.51z"/>
<path class="st1" d="M36.06,39.35l-0.02,3.33c-0.01,1.24-0.67,1.63-1.47,1.63c-0.95,0-1.48-0.45-1.48-1.44
	c0-0.5,0.01-1.02,0.01-1.52l0.02-1.99h-0.67l-0.02,1.88c-0.01,0.55-0.02,1.05-0.02,1.48c0,1.64,0.93,2.16,2.1,2.16
	c1.06,0,2.17-0.41,2.19-2.15l0.02-3.37H36.06L36.06,39.35L36.06,39.35z M38.22,44.76h0.68l0.03-4.31h0.02l2.93,4.33h0.63l0.04-5.42
	h-0.68l-0.03,4.28h-0.02l-2.93-4.28h-0.62L38.22,44.76L38.22,44.76z M44.1,44.76h0.67l0.05-5.41h-0.67L44.1,44.76L44.1,44.76z
	 M47.91,44.76h0.62l2.3-5.41h-0.68l-1.91,4.62l-1.75-4.62h-0.77L47.91,44.76L47.91,44.76z M51.74,44.76h2.86V44.2h-2.17l0.02-1.88
	h2.06v-0.56h-2.06l0.01-1.84h2.12v-0.56h-2.78L51.74,44.76L51.74,44.76z M55.8,44.76h0.68l0.03-2.31h0.43
	c0.52,0,0.67,0.31,1.01,0.74l1.18,1.58h0.81l-1.21-1.65c-0.23-0.28-0.53-0.77-0.89-0.84v-0.01c0.76-0.1,1.36-0.62,1.36-1.5
	c0-0.9-0.7-1.42-1.72-1.42h-1.63L55.8,44.76L55.8,44.76z M56.52,39.82h0.8c0.88,0,1.21,0.51,1.21,1.09c0,0.79-0.69,1.02-1.35,1.02
	H56.5L56.52,39.82L56.52,39.82z M60.6,44.44c0.45,0.28,0.9,0.43,1.48,0.43c1.19,0,1.75-0.75,1.75-1.55c0-1.7-2.43-1.42-2.43-2.61
	c0-0.65,0.53-0.95,1-0.95c0.51,0,0.83,0.19,1.15,0.4l0.26-0.49c-0.43-0.26-0.91-0.42-1.44-0.42c-0.96,0-1.64,0.59-1.64,1.42
	c0,1.89,2.38,1.33,2.38,2.7c0,0.6-0.44,0.99-1.07,0.99c-0.42,0-0.86-0.2-1.15-0.4L60.6,44.44L60.6,44.44z M65.05,44.76h0.67
	l0.05-5.41H65.1L65.05,44.76L65.05,44.76z M66.76,39.92h1.71l-0.05,4.85h0.67l0.05-4.85h1.71v-0.56h-4.1V39.92L66.76,39.92z
	 M72.2,38.95h0.72v-0.8H72.2V38.95L72.2,38.95z M73.48,38.95h0.72v-0.8h-0.72V38.95L73.48,38.95z M70.62,44.78h0.72l0.74-1.81h2.24
	l0.71,1.81h0.75l-2.2-5.42h-0.64L70.62,44.78L70.62,44.78z M74.09,42.4h-1.77l0.91-2.44h0.02L74.09,42.4L74.09,42.4z M75.58,39.92
	h1.71l-0.05,4.85h0.67l0.05-4.85h1.71v-0.56h-4.1V39.92L75.58,39.92z M80.33,44.44c0.45,0.28,0.9,0.43,1.48,0.43
	c1.19,0,1.75-0.75,1.75-1.55c0-1.7-2.43-1.42-2.43-2.61c0-0.65,0.53-0.95,1-0.95c0.51,0,0.83,0.19,1.15,0.4l0.26-0.49
	c-0.43-0.26-0.91-0.42-1.44-0.42c-0.96,0-1.64,0.59-1.64,1.42c0,1.89,2.38,1.33,2.38,2.7c0,0.6-0.44,0.99-1.07,0.99
	c-0.42,0-0.86-0.2-1.15-0.4L80.33,44.44L80.33,44.44z M84.32,44.44c0.45,0.28,0.9,0.43,1.49,0.43c1.19,0,1.75-0.75,1.75-1.55
	c0-1.7-2.43-1.42-2.43-2.61c0-0.65,0.53-0.95,1-0.95c0.51,0,0.83,0.19,1.15,0.4l0.26-0.49c-0.43-0.26-0.91-0.42-1.44-0.42
	c-0.96,0-1.64,0.59-1.64,1.42c0,1.89,2.38,1.33,2.38,2.7c0,0.6-0.44,0.99-1.07,0.99c-0.42,0-0.86-0.2-1.15-0.4L84.32,44.44
	L84.32,44.44z M89.45,39.82h0.81c0.88,0,1.2,0.51,1.2,1.09c0,0.78-0.6,1.1-1.17,1.1h-0.86L89.45,39.82L89.45,39.82z M88.74,44.76
	h0.67l0.03-2.24h0.78c0.89,0,1.92-0.41,1.92-1.62c0-1.03-0.7-1.55-1.72-1.55h-1.63L88.74,44.76L88.74,44.76z M93.2,44.76h0.67
	l0.05-5.41h-0.67L93.2,44.76L93.2,44.76z M94.91,39.92h1.71l-0.05,4.85h0.67l0.05-4.85h1.71v-0.56h-4.09V39.92L94.91,39.92z
	 M98.79,44.78h0.7l0.74-1.81h2.23l0.71,1.81h0.75l-2.2-5.42h-0.64L98.79,44.78L98.79,44.78z M102.24,42.4h-1.77l0.91-2.44h0.01
	L102.24,42.4L102.24,42.4z M107.79,44.76V44.2h-2.31l0.05-4.85h-0.67l-0.05,5.41H107.79L107.79,44.76z M111.12,44.76h1.52
	c1.06,0,1.75-0.54,1.75-1.5c0-0.69-0.4-1.2-1.08-1.32v-0.02c0.62-0.17,0.95-0.59,0.95-1.26c0-0.61-0.41-1.31-1.59-1.31h-1.5
	L111.12,44.76L111.12,44.76z M111.83,42.2h0.63c0.78,0,1.25,0.34,1.25,1c0,0.74-0.44,1.05-1.13,1.05h-0.79L111.83,42.2L111.83,42.2z
	 M111.84,39.82h0.54c0.86,0,1.2,0.33,1.2,0.93c0,0.55-0.36,0.93-1.25,0.93h-0.51L111.84,39.82L111.84,39.82z M115.67,44.76h2.86
	V44.2h-2.17l0.02-1.88h2.06v-0.56h-2.06l0.02-1.84h2.12v-0.56h-2.78L115.67,44.76L115.67,44.76z M119.73,44.76h0.68l0.03-2.31h0.43
	c0.52,0,0.67,0.31,1.01,0.74l1.17,1.58h0.84l-1.23-1.65c-0.23-0.28-0.53-0.77-0.89-0.84l0-0.01c0.76-0.1,1.36-0.62,1.36-1.5
	c0-0.9-0.69-1.42-1.72-1.42h-1.63L119.73,44.76L119.73,44.76z M120.45,39.82h0.81c0.88,0,1.2,0.51,1.2,1.09
	c0,0.79-0.69,1.02-1.35,1.02h-0.67L120.45,39.82L120.45,39.82z M124.7,44.76h0.68l0.03-4.31h0.01l2.92,4.33h0.63l0.06-5.42h-0.68
	l-0.03,4.28h-0.02l-2.95-4.28h-0.63L124.7,44.76L124.7,44.76z"/>
<path class="st0" d="M106.98,18.68h2.16c2.32,0,3.19,1.35,3.19,2.88c0,2.07-1.6,2.92-3.11,2.92h-2.28L106.98,18.68L106.98,18.68z
	 M106.95,31.79l0.01-5.93h2.05c2.36,0,5.1-1.1,5.1-4.29c0-2.74-1.85-4.13-4.56-4.13h-4.34l0,14.35H106.95z M118.37,31.79h1.79
	l0.01-14.35h-1.78L118.37,31.79L118.37,31.79z M123.88,18.93h4.54l0.02,12.86h1.73l0.03-12.86h4.54v-1.49h-10.87V18.93L123.88,18.93
	z M135.1,31.81h1.85l2.01-4.79h5.93l1.85,4.79h1.99l-5.81-14.37h-1.7L135.1,31.81L135.1,31.81z M144.29,25.53h-4.71l2.41-6.47h0.04
	L144.29,25.53L144.29,25.53z M159.93,31.79V30.3h-6.03l0.04-12.86h-1.78l0,14.35H159.93L159.93,31.79z"/>
<path class="st1" d="M62.39,17.36c0.67,0.19,1.31,0.47,1.93,0.83l0.07,0.04l-0.04,0.07l-1.04,2.02l-0.04,0.08l-0.07-0.05
	c-0.36-0.25-0.84-0.51-1.34-0.7c-0.4-0.15-0.8-0.26-1.15-0.26c-0.69,0-1.23,0.21-1.61,0.54c-0.4,0.36-0.62,0.87-0.62,1.44h0
	c0.01,1.18,1.09,1.64,2.32,2.16c1.66,0.7,3.57,1.52,3.57,4.32h0v0.03v0c-0.01,1.17-0.49,2.22-1.34,2.97
	c-0.84,0.75-2.04,1.21-3.48,1.21h0h-0.05c-0.88-0.01-1.72-0.19-2.5-0.45c-0.78-0.26-1.5-0.61-2.12-0.96l-0.07-0.04l0.04-0.07
	l1.19-2.01l0.04-0.07l0.07,0.04c0.11,0.06,0.23,0.12,0.35,0.19c0.83,0.47,1.92,1.07,2.8,1.07c0.62,0,1.23-0.17,1.65-0.52
	c0.37-0.3,0.61-0.74,0.61-1.31c0-1.18-1.14-1.69-2.42-2.26c-1.68-0.75-3.6-1.6-3.6-4.2c0-1.25,0.51-2.35,1.38-3.14
	c0.85-0.77,2.05-1.24,3.45-1.24C61.07,17.09,61.74,17.18,62.39,17.36L62.39,17.36z"/>
<polygon class="st1" points="80.71,31.86 80.73,17.35 83.49,17.35 83.52,29.42 89.14,29.42 89.14,31.86 "/>
<polygon class="st1" points="68.24,31.86 68.27,17.35 76.1,17.35 76.1,19.79 70.98,19.79 70.97,23.32 76.02,23.32 76.02,25.64 
	71.02,25.64 71,29.42 76.1,29.42 76.1,31.86 "/>
<polygon class="st1" points="39.76,31.86 39.75,17.26 42.68,17.26 49.09,27.91 49.12,17.35 51.74,17.35 51.74,31.93 48.67,31.93 
	42.37,21.37 42.4,31.86 "/>
<polygon class="st1" points="32.4,31.86 32.42,17.35 35.2,17.35 35.22,31.86 "/>
<path class="st0" d="M92.42,30.94c1.2,0.75,2.38,1.14,3.94,1.14c3.15,0,4.65-1.99,4.65-4.13c0-4.5-6.45-3.77-6.45-6.93
	c0-1.72,1.41-2.51,2.65-2.51c1.35,0,2.2,0.5,3.05,1.06l0.68-1.31c-1.14-0.68-2.41-1.12-3.82-1.12c-2.55,0-4.36,1.56-4.36,3.77
	c0,5.02,6.33,3.53,6.33,7.18c0,1.6-1.16,2.62-2.84,2.61c-1.22-0.01-2.72-0.75-3.49-1.29l-0.79,1.29L92.42,30.94L92.42,30.94z"/>
<rect x="173.36" y="17.34" class="st2" width="0.59" height="37.18"/>
<path class="st3" d="M219.11,54.94v-8.81h-1.91v5.56l-8.19-5.31h-1.71v8.24h1.71v-4.99l8.19,5.31H219.11L219.11,54.94z
	 M219.11,43.78v-3h-17.12v3H219.11L219.11,43.78z M219.11,37.13v-3h-4.64c-1.22,0-5.29-0.02-5.29-2.16c0-1.17,1.09-1.29,2.56-1.29
	h7.37v-3h-5.31c-1.07,0-4.62-0.15-4.62-2.18c0-1.12,1.37-1.27,2.26-1.27h7.67v-3h-7.89c-2.01,0-4.19,0.47-4.19,3
	c0,2.23,1.89,2.98,2.8,3.42v0.05c-1.04,0.15-2.8,0.77-2.8,2.98c0,2.11,1.89,3.08,2.93,3.4v0.05h-2.65v3H219.11L219.11,37.13z"/>
<path class="st4" d="M222.62,50.68h-0.32v2.74c0,0.39,0,1.35,0.97,1.35c0.69,0,1.07-0.58,1.07-1.42c0-0.86-0.36-1.48-0.94-1.48
	c-0.4,0-0.61,0.28-0.76,0.62h-0.01V50.68L222.62,50.68z M222.64,53.43c0-0.71,0.28-1.33,0.69-1.33c0.51,0,0.65,0.71,0.65,1.3
	c0,0.61-0.2,1.15-0.71,1.15C222.77,54.54,222.64,53.93,222.64,53.43L222.64,53.43z M226.98,54.46c-0.15,0.05-0.33,0.07-0.5,0.07
	c-0.37,0-1.08-0.21-1.08-1.55l1.64,0c0-0.84-0.45-1.11-0.92-1.11c-0.78,0-1.07,0.58-1.07,1.38c0,0.99,0.45,1.52,1.36,1.52
	c0.2,0,0.4-0.02,0.58-0.06V54.46L226.98,54.46z M225.41,52.74c0.02-0.2,0.11-0.65,0.65-0.65c0.54,0,0.61,0.44,0.61,0.65H225.41
	L225.41,52.74z M227.84,54.7h0.32v-1.4c0-0.44,0.17-1.02,0.77-1.02h0.09v-0.42c-0.42,0.03-0.67,0.33-0.86,0.68h-0.01v-0.62h-0.32
	V54.7L227.84,54.7z M230.11,51.93h-0.32v2.77h0.32v-1.25c0-0.33,0.3-1.29,0.87-1.29c0.4,0,0.44,0.36,0.44,0.69v1.85h0.32v-1.93
	c0-0.36-0.06-0.9-0.7-0.9c-0.58,0-0.85,0.62-0.92,0.82h-0.01V51.93L230.11,51.93z"/>
<path class="st4" d="M222.38,47.22h0.32v-1.28c0-0.45,0.3-1.27,0.8-1.27c0.4,0,0.4,0.44,0.4,0.65v1.9h0.32v-1.28
	c0-0.45,0.27-1.27,0.79-1.27c0.41,0,0.41,0.42,0.41,0.68v1.87h0.32v-2.09c0-0.34-0.16-0.74-0.65-0.74c-0.51,0-0.8,0.57-0.86,0.75
	h-0.01c0-0.43-0.21-0.75-0.64-0.75c-0.44,0-0.75,0.42-0.87,0.76h-0.01v-0.69h-0.32V47.22L222.38,47.22z M228.55,46.97
	c-0.14,0.05-0.33,0.07-0.5,0.07c-0.37,0-1.08-0.22-1.08-1.56h1.64c0-0.84-0.45-1.11-0.92-1.11c-0.78,0-1.07,0.57-1.07,1.38
	c0,0.99,0.45,1.52,1.36,1.52c0.2,0,0.4-0.02,0.58-0.06V46.97L228.55,46.97z M226.98,45.26c0.02-0.2,0.11-0.65,0.65-0.65
	c0.54,0,0.61,0.44,0.61,0.65H226.98L226.98,45.26z M231.03,47.22h0.32V43.2h-0.32V45h-0.01c-0.05-0.17-0.23-0.62-0.75-0.62
	c-0.68,0-0.97,0.64-0.97,1.47c0,0.69,0.17,1.43,0.92,1.43c0.51,0,0.76-0.44,0.8-0.63h0.01V47.22L231.03,47.22z M229.64,45.87
	c0-0.66,0.17-1.26,0.64-1.26c0.51,0,0.75,0.86,0.75,1.19c0,0.68-0.33,1.25-0.8,1.25C229.77,47.05,229.64,46.42,229.64,45.87
	L229.64,45.87z M232.38,47.22h0.32v-2.77h-0.32V47.22L232.38,47.22z M232.33,43.67h0.41V43.2h-0.41V43.67L232.33,43.67z
	 M233.45,47.22h1.95v-0.24h-1.56l1.55-2.37v-0.16h-1.83v0.24h1.41l-1.52,2.29V47.22L233.45,47.22z M236.17,47.22h0.32v-2.77h-0.32
	V47.22L236.17,47.22z M236.12,43.67h0.41V43.2h-0.41V43.67L236.12,43.67z M237.83,44.44h-0.32v2.77h0.32v-1.25
	c0-0.33,0.3-1.29,0.87-1.29c0.4,0,0.44,0.36,0.44,0.69v1.85h0.32v-1.93c0-0.36-0.06-0.9-0.7-0.9c-0.58,0-0.85,0.62-0.92,0.82h-0.01
	V44.44L237.83,44.44z"/>
<path class="st4" d="M222.39,39.73h0.32v-4.02h-0.32V39.73L222.39,39.73z M225.09,39.73h0.32v-1.88c0-0.47-0.1-0.95-0.85-0.95
	c-0.76,0-0.91,0.44-0.96,0.74h0.4c0.01-0.23,0.07-0.51,0.52-0.51c0.57,0,0.57,0.45,0.57,0.88v0.19c-1.08,0-1.55,0.37-1.55,0.9
	c0,0.37,0.29,0.7,0.74,0.7c0.47,0,0.74-0.36,0.8-0.49h0.01V39.73L225.09,39.73z M225.09,38.57c0,0.39-0.18,0.93-0.71,0.93
	c-0.27,0-0.48-0.18-0.48-0.46c0-0.63,0.93-0.64,1.19-0.64V38.57L225.09,38.57z M226.7,35.71h-0.32v2.74c0,0.39,0,1.34,0.97,1.34
	c0.69,0,1.07-0.58,1.07-1.42c0-0.86-0.36-1.48-0.94-1.48c-0.4,0-0.61,0.28-0.76,0.62h-0.01V35.71L226.7,35.71z M226.72,38.45
	c0-0.71,0.28-1.33,0.69-1.33c0.51,0,0.65,0.71,0.65,1.3c0,0.61-0.2,1.15-0.71,1.15C226.85,39.57,226.72,38.95,226.72,38.45
	L226.72,38.45z M230.26,39.79c0.78,0,1.14-0.59,1.14-1.41c0-0.93-0.41-1.48-1.16-1.48c-0.75,0-1.12,0.61-1.12,1.43
	C229.12,39.18,229.46,39.79,230.26,39.79L230.26,39.79z M229.47,38.27c0-0.53,0.16-1.15,0.76-1.15c0.62,0,0.8,0.61,0.8,1.28
	c0,0.61-0.18,1.17-0.79,1.17C229.67,39.57,229.47,38.97,229.47,38.27L229.47,38.27z M232.26,39.73h0.32v-1.4
	c0-0.44,0.18-1.02,0.77-1.02h0.09v-0.42c-0.41,0.03-0.67,0.33-0.86,0.68h-0.01v-0.62h-0.32V39.73L232.26,39.73z"/>
<path class="st4" d="M222.59,32.24h0.32v-2.53h0.77v-0.24h-0.77v-0.39c0-0.39,0.09-0.65,0.54-0.65c0.16,0,0.26,0.06,0.38,0.1v-0.28
	c-0.09-0.02-0.19-0.05-0.37-0.05c-0.76,0-0.88,0.47-0.88,0.86v0.41h-0.47v0.24h0.47V32.24L222.59,32.24z M224.66,28.92h0.43v-0.45
	h-0.43V28.92L224.66,28.92z M225.62,28.92h0.43v-0.45h-0.43V28.92L225.62,28.92z M226.01,32.24h0.32v-2.77h-0.32v1.25
	c0,0.54-0.25,1.29-0.85,1.29c-0.29,0-0.47-0.26-0.47-0.69v-1.86h-0.32v1.93c0,0.36,0.1,0.9,0.81,0.9c0.54,0,0.75-0.56,0.81-0.75
	h0.01V32.24L226.01,32.24z M227.37,32.24h0.32v-1.4c0-0.44,0.17-1.02,0.77-1.02h0.09v-0.42c-0.41,0.03-0.67,0.33-0.86,0.68h-0.01
	v-0.62h-0.32V32.24L227.37,32.24z"/>
<path class="st4" d="M222.06,24.76h1.95v-0.24h-1.56l1.56-2.37v-0.16h-1.84v0.24h1.41l-1.52,2.29V24.76L222.06,24.76z M226.46,24.51
	c-0.14,0.05-0.33,0.07-0.5,0.07c-0.37,0-1.08-0.22-1.08-1.56h1.64c0-0.84-0.45-1.11-0.92-1.11c-0.78,0-1.07,0.58-1.07,1.38
	c0,0.99,0.45,1.52,1.36,1.52c0.2,0,0.4-0.02,0.58-0.06V24.51L226.46,24.51z M224.9,22.8c0.02-0.2,0.11-0.65,0.65-0.65
	c0.54,0,0.61,0.44,0.61,0.65H224.9L224.9,22.8z M227.64,21.99h-0.32v2.77h0.32v-1.25c0-0.33,0.3-1.29,0.87-1.29
	c0.4,0,0.44,0.36,0.44,0.69v1.85h0.32v-1.93c0-0.36-0.06-0.9-0.7-0.9c-0.58,0-0.85,0.62-0.92,0.82h-0.01V21.99L227.64,21.99z
	 M231.56,24.55c-0.08,0.03-0.16,0.04-0.25,0.04c-0.5,0-0.5-0.37-0.5-0.64v-1.73h0.73v-0.24h-0.73v-0.84l-0.32,0.2v0.65h-0.45v0.24
	h0.45v1.95c0,0.58,0.42,0.65,0.79,0.65c0.1,0,0.19-0.01,0.29-0.02V24.55L231.56,24.55z M232.3,24.76h0.32v-1.4
	c0-0.44,0.17-1.02,0.77-1.02h0.09v-0.42c-0.41,0.03-0.67,0.33-0.86,0.68h-0.01v-0.62h-0.32V24.76L232.3,24.76z M235.88,24.76h0.32
	v-2.77h-0.32v1.25c0,0.54-0.25,1.29-0.85,1.29c-0.29,0-0.47-0.26-0.47-0.69v-1.86h-0.32v1.93c0,0.36,0.11,0.9,0.81,0.9
	c0.54,0,0.75-0.56,0.81-0.75h0.01V24.76L235.88,24.76z M237.24,24.76h0.32v-1.27c0-0.45,0.3-1.27,0.8-1.27c0.4,0,0.4,0.44,0.4,0.65
	v1.9h0.32v-1.27c0-0.45,0.27-1.27,0.79-1.27c0.41,0,0.41,0.41,0.41,0.68v1.87h0.32v-2.09c0-0.34-0.16-0.75-0.65-0.75
	c-0.51,0-0.8,0.57-0.86,0.75h-0.01c0-0.42-0.21-0.75-0.64-0.75c-0.44,0-0.75,0.42-0.87,0.76l-0.01,0v-0.69h-0.32V24.76L237.24,24.76
	z"/>
<path class="st5" d="M214.41,11.63c0.47,0,0.85-0.38,0.85-0.85c0-0.47-0.38-0.85-0.85-0.85c-0.47,0-0.85,0.38-0.85,0.85
	C213.56,11.25,213.94,11.63,214.41,11.63L214.41,11.63z"/>
<path class="st5" d="M209.41,14.2c0.71,0,1.28-0.57,1.28-1.28c0-0.71-0.57-1.28-1.28-1.28c-0.71,0-1.28,0.57-1.28,1.28
	C208.13,13.63,208.7,14.2,209.41,14.2L209.41,14.2z"/>
<path class="st5" d="M203.21,18.16c0.94,0,1.71-0.77,1.71-1.71c0-0.94-0.77-1.71-1.71-1.71c-0.94,0-1.71,0.77-1.71,1.71
	C201.5,17.4,202.27,18.16,203.21,18.16L203.21,18.16z"/>
<path class="st5" d="M196.8,24.73c1.18,0,2.14-0.96,2.14-2.14c0-1.18-0.96-2.14-2.14-2.14c-1.18,0-2.14,0.96-2.14,2.14
	C194.66,23.77,195.62,24.73,196.8,24.73L196.8,24.73z"/>
<path class="st5" d="M192.69,32.68c1.42,0,2.57-1.15,2.57-2.56c0-1.42-1.15-2.57-2.57-2.57c-1.42,0-2.56,1.15-2.56,2.57
	C190.13,31.53,191.28,32.68,192.69,32.68L192.69,32.68z"/>
<path class="st5" d="M190.56,42.22c1.65,0,2.99-1.34,2.99-2.99c0-1.65-1.34-2.99-2.99-2.99c-1.65,0-2.99,1.34-2.99,2.99
	C187.56,40.88,188.9,42.22,190.56,42.22L190.56,42.22z"/>
<path class="st5" d="M192.69,52.73c1.89,0,3.42-1.53,3.42-3.42c0-1.89-1.53-3.42-3.42-3.42c-1.89,0-3.42,1.53-3.42,3.42
	C189.27,51.2,190.8,52.73,192.69,52.73L192.69,52.73z"/>
<path class="st5" d="M198.94,64.1c2.12,0,3.85-1.72,3.85-3.85c0-2.13-1.72-3.85-3.85-3.85c-2.13,0-3.85,1.72-3.85,3.85
	C195.09,62.38,196.81,64.1,198.94,64.1L198.94,64.1z"/>
<path class="st5" d="M209.41,70.69c2.36,0,4.28-1.92,4.28-4.28c0-2.36-1.91-4.28-4.28-4.28c-2.36,0-4.28,1.91-4.28,4.28
	C205.13,68.77,207.05,70.69,209.41,70.69L209.41,70.69z"/>
<path class="st5" d="M223.56,71.54c2.6,0,4.7-2.11,4.7-4.7c0-2.6-2.11-4.7-4.7-4.7c-2.6,0-4.7,2.11-4.7,4.7
	C218.86,69.44,220.96,71.54,223.56,71.54L223.56,71.54z"/>
<path class="st5" d="M238.57,66.41c2.83,0,5.13-2.3,5.13-5.13c0-2.83-2.3-5.13-5.13-5.13c-2.83,0-5.13,2.3-5.13,5.13
	C233.44,64.12,235.74,66.41,238.57,66.41L238.57,66.41z"/>
</svg>
